[img]http://i.imgur.com/lNmPUhb.jpg[/img]

[code]

Silent.Hill.2012.WEBRip.XViD.AC3-26k
 
http://www.imdb.com/title/tt0938330/

Plot:

When her father disappears, Heather Mason is drawn into a strange and terrifying alternate reality that holds 
answers to the horrific nightmares that have plagued her since childhood.

Sources - VIDEO: 720 WEBRip mkv ..... thanks .... :P
          AUDIO: 720 WEBRip mkv ..... thanks .... :P

 
Format                                   : AVI
Format/Info                              : Audio Video Interleave
File size                                : 1.62 GiB
Duration                                 : 1h 29mn
Overall bit rate                         : 2 585 Kbps

Video
ID                                       : 0
Format                                   : MPEG-4 Visual
Format profile                           : Advanced Simple@L5
Format settings, BVOP                    : 2
Format settings, QPel                    : Yes
Format settings, GMC                     : No warppoints
Format settings, Matrix                  : Default (H.263)
Muxing mode                              : Packed bitstream
Codec ID                                 : XVID
Codec ID/Hint                            : XviD
Duration                                 : 1h 29mn
Bit rate                                 : 2 321 Kbps
Width                                    : 720 pixels
Height                                   : 304 pixels
Display aspect ratio                     : 2.35:1
Frame rate                               : 23.976 fps
Color space                              : YUV
Chroma subsampling                       : 4:2:0
Bit depth                                : 8 bits
Scan type                                : Progressive
Compression mode                         : Lossy
Bits/(Pixel*Frame)                       : 0.442
Stream size                              : 1.45 GiB (90%)
Writing library                          : XviD 64

Audio
ID                                       : 1
Format                                   : AC-3
Format/Info                              : Audio Coding 3
Mode extension                           : CM (complete main)
Format settings, Endianness              : Big
Codec ID                                 : 2000
Duration                                 : 1h 29mn
Bit rate mode                            : Constant
Bit rate                                 : 256 Kbps
Channel(s)                               : 2 channels
Channel positions                        : Front: L R
Sampling rate                            : 48.0 KHz
Bit depth                                : 16 bits
Compression mode                         : Lossy
Stream size                              : 164 MiB (10%)
Alignment                                : Aligned on interleaves
Interleave, duration                     : 64 ms (1.53 video frames)
Interleave, preload duration             : 192 ms
Title                                    : 256

Notes -
got passed a nice 720 file that was 1080 source.. did our thing turned out nice.. enjoy

[/code]

Screens:

[img]http://imageshack.us/a/img545/1858/55773459.png[/img]
[img]http://imageshack.us/a/img687/5730/77869379.png[/img]
[img]http://imageshack.us/a/img819/8885/28345357.png[/img]
[img]http://imageshack.us/a/img248/6974/47485061.png[/img]
[img]http://imageshack.us/a/img15/3214/72231891.jpg[/img]

Greetz:
SILENT-HD|CM8|RX|VISION|HDSCENE|xTriLL|ADTRG|CRYS|REMIXHD|HS|Tommiecook
BIDA|RX|REFILL|INSPiRAL|AXED|HOPE|Anonymous|GooN|NOIR|Blackjesus|Gabroo Punjab Deh
|UNiQUE|RESiSTANCE|TRiNiTY|LEGION

To all the people who have helped me, you know who you are

Anything to offer email us @: 26k@hushmail.me 